<?xml version="1.0" standalone="no"?>
<!DOCTYPE svg PUBLIC "-//W3C//DTD SVG 20010904//EN"
 "http://www.w3.org/TR/2001/REC-SVG-20010904/DTD/svg10.dtd">
<svg version="1.0" xmlns="http://www.w3.org/2000/svg"
 width="164.000000pt" height="164.000000pt" viewBox="0 0 164.000000 164.000000"
 preserveAspectRatio="xMidYMid meet">
<metadata>
Created by potrace 1.11, written by Peter Selinger 2001-2013
</metadata>
<g transform="translate(0.000000,164.000000) scale(0.100000,-0.100000)"
fill="#000000" stroke="none">
<path d="M581 1500 c-72 -21 -129 -72 -169 -153 -40 -84 -52 -138 -45 -207 7
-79 22 -98 23 -30 1 46 2 52 12 36 6 -11 11 -45 12 -75 0 -78 -54 -163 -137
-215 -32 -20 -62 -36 -67 -36 -4 0 -11 -7 -14 -16 -3 -8 -11 -12 -16 -9 -6 4
-10 3 -9 -2 5 -28 -2 -53 -13 -47 -7 4 -9 3 -5 -1 15 -17 38 -14 32 4 -3 10 2
27 12 37 10 11 15 15 11 10 -4 -5 -2 -18 4 -30 10 -19 10 -20 -5 -7 -10 8 -17
9 -17 3 0 -6 8 -16 18 -21 16 -10 16 -10 0 -11 -10 0 -18 -5 -18 -11 0 -5 6
-7 13 -3 6 4 3 -2 -7 -14 -22 -26 -11 -30 16 -5 11 9 18 11 18 5 0 -7 -5 -12
-11 -12 -6 0 -9 -7 -6 -14 4 -10 1 -13 -9 -9 -8 3 -14 -1 -14 -11 0 -11 8 -15
30 -12 36 4 43 -2 24 -21 -8 -8 -12 -19 -9 -24 4 -5 7 -39 9 -77 4 -86 28
-137 83 -175 55 -39 101 -59 108 -46 4 5 -2 9 -11 9 -29 0 -83 42 -100 78 -17
37 -18 146 0 175 18 28 45 22 44 -12 -1 -33 44 -104 95 -148 33 -28 34 -33 29
-81 -5 -57 16 -131 28 -97 6 17 8 16 28 -5 22 -24 22 -24 22 -2 0 11 -5 33
-12 47 -8 19 -8 29 0 37 8 8 19 -2 41 -38 17 -26 31 -54 31 -61 0 -7 4 -13 9
-13 14 0 2 71 -21 117 -12 24 -6 39 10 29 14 -9 35 -129 29 -170 -4 -31 -2
-36 17 -37 60 -3 86 14 86 58 0 32 16 29 27 -4 l10 -28 6 28 c11 41 27 32 27
-15 l0 -43 21 34 c11 19 23 50 26 69 5 26 8 31 15 19 8 -16 6 -45 -7 -90 -4
-12 -21 -37 -38 -55 -17 -17 -29 -32 -26 -32 37 3 135 42 158 63 39 35 45 34
26 -2 -8 -16 -25 -33 -37 -37 -21 -6 -21 -7 -3 -20 25 -18 55 -18 83 1 25 19
70 91 75 123 2 12 9 28 15 34 7 7 12 18 12 25 0 7 4 13 9 13 13 0 2 -60 -15
-84 -21 -30 -17 -43 5 -15 43 56 60 107 65 199 2 25 11 65 21 90 17 46 21 105
9 173 l-6 39 34 -6 c36 -6 68 6 49 18 -27 17 -9 27 36 21 46 -6 47 -6 30 13
-24 26 -22 29 19 30 48 2 52 7 23 31 l-24 20 25 -1 c14 0 34 0 45 1 19 2 19 3
-4 21 -13 11 -22 20 -20 21 2 0 24 3 48 5 75 8 71 15 -25 50 -101 36 -220 67
-311 79 -61 8 -62 13 -39 120 43 200 -48 348 -250 408 -65 19 -222 18 -293 -3z
m-173 -567 c-2 -9 -8 -18 -15 -20 -7 -3 -9 3 -6 16 6 25 26 28 21 4z m791
-275 c8 -13 16 -61 19 -113 4 -90 -1 -111 -13 -45 -3 19 -14 53 -25 77 -19 43
-18 55 6 46 10 -4 12 0 8 13 -4 11 -11 25 -17 32 -5 6 -5 12 -1 12 5 0 15 -10
23 -22z"/>
<path d="M162 704 c-14 -16 -5 -18 17 -5 7 5 9 11 5 14 -5 3 -15 -1 -22 -9z"/>
</g>
</svg>
